<?xml version="1.0" encoding="utf-8"?>
<!-- Generator: Adobe Illustrator 25.3.1, SVG Export Plug-In . SVG Version: 6.00 Build 0)  -->
<svg version="1.1" id="Layer_1" xmlns="http://www.w3.org/2000/svg" xmlns:xlink="http://www.w3.org/1999/xlink" x="0px" y="0px"
	 viewBox="0 0 612 792" style="enable-background:new 0 0 612 792;" xml:space="preserve">
<style type="text/css">
	.st0{fill:#E9E9E9;}
</style>
<path class="st0" d="M-155.2,281.9c29.5,0,59,0,88.5,0c10.7,0,15.5,4.8,15.5,15.6c0,53.2,0,106.3,0,159.5c0,10.8-4.8,15.5-15.6,15.5
	c-59,0-118,0-177,0c-11,0-15.8-4.8-15.8-15.8c0-53,0-106,0-159c0-11.1,4.8-15.8,15.8-15.8C-214.2,281.9-184.7,281.9-155.2,281.9z
	 M-60.2,390.2c0.2-1.8,0.3-2.4,0.3-3.1c0-30.1,0-60.3,0-90.4c0-5.1-1.5-6.3-7.2-6.3c-58.8,0-117.6,0-176.4,0c-6,0-7.2,1.3-7.2,7.4
	c0,45.8,0,91.6,0,137.4c0,1.2,0.2,2.5,0.4,4.4c1.7-1.6,3-2.7,4.1-3.9c14.8-14.8,29.7-29.7,44.5-44.5c7.3-7.3,7.3-7.3,14.8,0.2
	c6.2,6.2,12.5,12.2,17.8,17.3c19.6-19.1,39.1-38,58.5-56.9c5.7-5.6,6.5-5.7,12-0.2C-86.1,364.2-73.5,376.8-60.2,390.2z
	 M-194.9,396.5c-8.5,8.5-17,17.1-25.6,25.7c-9.4,9.4-19.1,18.6-28.1,28.5c-2,2.2-1.9,6.7-1.6,10.1c0.1,1.3,3.8,3.1,5.9,3.1
	c59.3,0.2,118.6,0.1,177.9,0.2c4.6,0,6.6-2,6.5-6.7c-0.1-17.2,0-34.3-0.1-51.5c0-1.6-0.6-3.7-1.7-4.9c-14.1-14.4-28.4-28.6-42.8-43
	c-1.4,1.3-2.7,2.4-3.8,3.6c-17.7,17.9-35.4,35.7-53.1,53.6c-7.2,7.2-7.1,7.2-14.5-0.2C-181.9,409-188.2,403-194.9,396.5z"/>
<path class="st0" d="M-200.9,360.3c-11.9-0.1-21.6-9.7-21.6-21.6c0-12.1,9.9-21.8,22-21.7c11.9,0.1,21.5,9.7,21.5,21.6
	C-178.8,350.8-188.6,360.4-200.9,360.3z M-187.7,338.9c0.1-7.3-5.5-13.1-12.8-13.2c-7.1-0.1-13.2,5.7-13.3,12.8
	c-0.1,7.1,5.8,13.1,12.9,13.3C-193.8,352-187.8,346.1-187.7,338.9z"/>
</svg>
