<svg xmlns="http://www.w3.org/2000/svg" viewBox="0 0 512 512"><title>Artboard 134</title><g id="Manggo"><path d="M320,21.33333h.00009a85.33325,85.33325,0,0,1,85.33325,85.33325v.00009a0,0,0,0,1,0,0h-.00009A85.33325,85.33325,0,0,1,320,21.33342v-.00009A0,0,0,0,1,320,21.33333Z" style="fill:#ad6143"/><circle cx="416" cy="96" r="32" style="fill:#993b17"/><path d="M21.33333,384c0,42.66667,21.33334,106.66667,149.33334,106.66667,75.67717,0,151.68648-15.06272,213.33333-64,60.00052-47.63038,106.66667-106.66667,106.66667-192C490.66667,128,426.66667,64,320,64,170.66667,64,160,224,128,256S21.33333,298.66667,21.33333,384Z" style="fill:#f59707"/><path d="M423.16769,151.08126c-8.93872-49.5298-52.07775-86.932-102.40746-87.08014Q320.38049,64,320,64C170.66667,64,160,224,128,256S21.33333,298.66667,21.33333,384a2.46487,2.46487,0,0,0,.00106.50825C45.40775,498.70782,258.35286,432.9375,320,384c60-47.63021,106.66667-106.66667,106.66667-192A230.37711,230.37711,0,0,0,423.16769,151.08126Z" style="fill:#fdab00"/><path d="M96,384H53.33333c0-40.95833,21.42709-55.69792,56.38542-76.34375,15.01042-8.875,29.0625-17.1875,40.89583-29.03125,13.07292-13.05208,21.3125-33.59375,30.85417-57.38542C203.86458,165.39583,231.69792,96,320,96v42.66667c-51.17708,0-71.07292,29-98.89583,98.375-10.85417,27.05208-21.07292,52.53125-40.3125,71.76041-15.64584,15.64584-33.48959,26.19792-49.22917,35.5C97.08333,364.66667,96,368.27083,96,384Z" style="fill:#fdbc34"/><path d="M221.10417,237.04167,181.5,221.16667C203.86458,165.39583,231.69792,96,320,96v42.66667C268.82292,138.66667,248.92708,167.66667,221.10417,237.04167Z" style="fill:#fdcf6d"/></g></svg>