<?xml version="1.0" encoding="utf-8"?>
<!-- Generator: Adobe Illustrator 25.3.1, SVG Export Plug-In . SVG Version: 6.00 Build 0)  -->
<svg version="1.1" id="Layer_1" xmlns="http://www.w3.org/2000/svg" xmlns:xlink="http://www.w3.org/1999/xlink" x="0px" y="0px"
	 viewBox="0 0 132 24" style="enable-background:new 0 0 132 24;" xml:space="preserve">
<style type="text/css">
	.st0{fill:#00C650;}
</style>
<g>
	<path class="st0" d="M20.3,18.9c-0.6,0-1-0.2-1.4-0.5s-0.6-0.8-0.6-1.3V12c0-0.9,0.2-1.7,0.6-2.5s0.9-1.5,1.6-2.1s1.4-1.1,2.3-1.4
		s1.8-0.5,2.8-0.6c0.6,0,1,0.2,1.4,0.5c0.4,0.4,0.6,0.8,0.6,1.3S27.4,8.1,27,8.5C26.7,8.8,26.3,9,25.7,9c-0.5,0-0.9,0.1-1.3,0.2
		c-0.4,0.2-0.8,0.4-1.1,0.7c-0.3,0.3-0.6,0.6-0.7,1c-0.2,0.4-0.3,0.8-0.3,1.2v5.1c0,0.5-0.2,0.9-0.6,1.2
		C21.3,18.8,20.9,18.9,20.3,18.9z"/>
	<path class="st0" d="M35.2,5.4c1,0,1.9,0.2,2.8,0.6c0.9,0.4,1.7,0.9,2.4,1.5s1.2,1.3,1.6,2.2c0.4,0.8,0.6,1.7,0.6,2.6
		c0,0.5-0.2,0.9-0.6,1.3c-0.4,0.4-0.9,0.5-1.5,0.5h-8.1c0.7,0.9,1.6,1.3,2.8,1.3c0.3,0,0.6,0,0.8-0.1s0.4-0.1,0.6-0.2
		c0.2-0.1,0.3-0.1,0.5-0.2c0.2-0.1,0.4-0.1,0.6-0.1c0.4,0,0.8,0.1,1.1,0.3s0.6,0.5,0.7,0.8c0.2,0.3,0.2,0.6,0.2,1
		c-0.1,0.4-0.2,0.7-0.5,1c-0.6,0.4-1.2,0.7-1.8,0.9C36.7,19,36,19,35.3,19.1c-1,0-1.9-0.1-2.8-0.5c-0.9-0.4-1.7-0.9-2.4-1.5
		c-0.7-0.6-1.2-1.4-1.6-2.2s-0.6-1.7-0.6-2.6s0.2-1.7,0.6-2.5s0.9-1.5,1.6-2.2c0.7-0.6,1.5-1.1,2.4-1.5C33.3,5.6,34.2,5.4,35.2,5.4z
		 M38,10.3c-0.3-0.4-0.8-0.7-1.2-0.9c-0.5-0.2-1-0.3-1.6-0.3s-1.1,0.1-1.6,0.3s-0.9,0.5-1.2,0.9H38z"/>
	<path class="st0" d="M51.3,5.4c2,0,3.8,0.7,5.2,2C56.8,7.8,57,8.2,57,8.7s-0.2,0.9-0.6,1.2c-0.4,0.3-0.8,0.5-1.4,0.5
		c-0.6,0-1-0.1-1.4-0.5C52.9,9.3,52.1,9,51.3,9c-0.5,0-0.9,0.1-1.3,0.3c-0.4,0.2-0.8,0.4-1.1,0.7s-0.6,0.6-0.8,1s-0.3,0.8-0.3,1.2
		s0.1,0.8,0.3,1.2s0.4,0.7,0.8,1c0.3,0.3,0.7,0.5,1.1,0.7c0.4,0.2,0.8,0.2,1.3,0.2c0.9,0,1.7-0.3,2.3-0.8c0.4-0.4,0.8-0.6,1.4-0.6
		c0.6,0,1,0.2,1.4,0.6c0.2,0.1,0.3,0.3,0.4,0.5c0.1,0.2,0.2,0.4,0.2,0.6c0,0.2,0,0.4-0.1,0.7c-0.1,0.2-0.2,0.4-0.4,0.6
		c-0.7,0.7-1.5,1.1-2.4,1.5c-0.9,0.3-1.8,0.5-2.8,0.5s-2-0.2-2.9-0.5c-0.9-0.4-1.7-0.9-2.4-1.5s-1.2-1.3-1.6-2.2s-0.6-1.7-0.6-2.6
		s0.2-1.8,0.6-2.6c0.4-0.7,1-1.5,1.6-2.1c0.7-0.6,1.5-1.1,2.4-1.5C49.3,5.6,50.3,5.4,51.3,5.4z"/>
	<path class="st0" d="M60.6,1.2c0.5,0,1,0.2,1.4,0.5c0.4,0.4,0.6,0.8,0.6,1.3S62.4,3.9,62,4.3c-0.4,0.4-0.8,0.5-1.4,0.5
		c-0.6,0-1.1-0.2-1.5-0.5s-0.6-0.8-0.6-1.4c0-0.5,0.2-0.9,0.6-1.2S60,1.2,60.6,1.2z M60.6,5.5c0.5,0,1,0.2,1.3,0.5
		c0.4,0.4,0.6,0.8,0.6,1.3v9.9c0,0.5-0.2,0.9-0.5,1.3c-0.3,0.3-0.8,0.5-1.4,0.6c-0.5,0-1-0.1-1.3-0.4c-0.4-0.3-0.6-0.7-0.7-1.3V7.2
		c0-0.5,0.3-0.9,0.6-1.2C59.6,5.6,60,5.5,60.6,5.5z"/>
	<path class="st0" d="M71.7,5.4c1,0,1.9,0.2,2.8,0.5c0.9,0.4,1.7,0.8,2.4,1.5c0.7,0.6,1.2,1.3,1.6,2.2c0.4,0.8,0.6,1.7,0.6,2.6
		c0,0.9-0.2,1.8-0.6,2.6s-0.9,1.5-1.6,2.2c-0.7,0.6-1.4,1.1-2.4,1.5c-0.9,0.4-1.9,0.5-2.9,0.5c-1.3,0-2.4-0.2-3.4-0.7v3.2
		c0,0.5-0.2,0.9-0.6,1.3s-0.9,0.5-1.4,0.5s-1-0.2-1.4-0.5s-0.6-0.7-0.6-1.2v-9.4c0-0.9,0.2-1.8,0.6-2.6s0.9-1.5,1.6-2.2
		c0.7-0.6,1.5-1.1,2.4-1.5C69.7,5.6,70.7,5.4,71.7,5.4z M68.3,12.2c0,0.5,0.1,0.9,0.3,1.3c0.2,0.4,0.4,0.7,0.8,1
		c0.3,0.3,0.7,0.5,1.1,0.7s0.9,0.2,1.3,0.2c0.5,0,0.9-0.1,1.3-0.3s0.8-0.4,1.1-0.7s0.5-0.6,0.7-1s0.3-0.8,0.3-1.2s-0.1-0.8-0.3-1.2
		c-0.2-0.4-0.4-0.7-0.7-1c-0.3-0.3-0.7-0.5-1.1-0.7s-0.8-0.2-1.3-0.2s-0.9,0.1-1.4,0.3c-0.4,0.2-0.8,0.4-1.1,0.7s-0.5,0.6-0.7,1
		C68.3,11.3,68.3,11.7,68.3,12.2z"/>
	<path class="st0" d="M82.3,1.2c0.5,0,1,0.2,1.4,0.5s0.6,0.8,0.6,1.3S84,3.9,83.7,4.3s-0.8,0.5-1.4,0.5s-1.1-0.2-1.5-0.5
		s-0.6-0.8-0.6-1.4c0-0.5,0.2-0.9,0.6-1.2S81.8,1.2,82.3,1.2z M82.3,5.5c0.5,0,1,0.2,1.3,0.5c0.4,0.4,0.6,0.8,0.6,1.3v9.9
		c0,0.5-0.2,0.9-0.5,1.3c-0.3,0.3-0.8,0.5-1.4,0.6c-0.5,0-1-0.1-1.3-0.4s-0.6-0.7-0.7-1.3V7.2c0-0.5,0.3-0.9,0.6-1.2
		C81.3,5.6,81.8,5.5,82.3,5.5z"/>
	<path class="st0" d="M94,1c0.6,0,1.1,0.1,1.5,0.4s0.6,0.7,0.7,1.3c0,0.5-0.2,0.9-0.6,1.2s-0.9,0.5-1.4,0.6c-0.4,0-0.8,0.2-1,0.4
		c-0.2,0.3-0.4,0.6-0.4,0.9v4.1c0.5,0,1,0.2,1.3,0.6c0.4,0.3,0.5,0.8,0.5,1.3s-0.2,0.9-0.5,1.3c-0.3,0.3-0.8,0.5-1.3,0.6V18
		c0,0.5-0.1,1.1-0.3,1.6c-0.2,0.5-0.5,1-0.8,1.4s-0.8,0.8-1.2,1.1c-0.5,0.3-1,0.6-1.6,0.7c-0.4,0.1-0.7,0.2-1.1,0.2
		s-0.7-0.1-1.1-0.2c-0.3-0.1-0.6-0.3-0.8-0.6c-0.2-0.3-0.3-0.6-0.4-1c0-0.5,0.2-0.9,0.6-1.2c0.4-0.3,0.8-0.5,1.4-0.5
		c0.4,0,0.8-0.1,1-0.4c0.3-0.3,0.4-0.6,0.4-0.9V14c-0.6,0-1-0.2-1.3-0.5c-0.4-0.6-0.6-1-0.6-1.5s0.2-0.9,0.5-1.2s0.8-0.5,1.3-0.6
		V5.9c0-0.6,0.1-1.2,0.4-1.8s0.6-1.1,1.1-1.6s1-0.8,1.7-1.1C92.6,1.2,93.3,1,94,1z"/>
	<path class="st0" d="M98.8,5.4c0.5,0,1,0.2,1.4,0.5s0.6,0.7,0.6,1.2v5.1c0,0.4,0.1,0.8,0.3,1.2s0.4,0.7,0.7,1
		c0.3,0.3,0.7,0.5,1.1,0.7s0.9,0.3,1.4,0.3c0.4,0,0.9-0.1,1.3-0.2c0.4-0.1,0.8-0.4,1.1-0.6c0.3-0.3,0.6-0.6,0.8-0.9
		c0.2-0.4,0.3-0.8,0.3-1.2V7.1c0-0.5,0.2-0.9,0.6-1.3c0.4-0.4,0.9-0.5,1.4-0.5s1,0.2,1.4,0.5s0.6,0.7,0.6,1.2v14.4
		c0,0.5-0.2,0.9-0.6,1.2c-0.4,0.3-0.9,0.5-1.4,0.5s-1-0.2-1.4-0.5s-0.6-0.8-0.6-1.3v-3.2c-0.5,0.3-1,0.5-1.6,0.6s-1.2,0.2-1.8,0.2
		c-1,0-1.9-0.2-2.8-0.5c-0.9-0.4-1.7-0.8-2.4-1.5c-0.7-0.6-1.2-1.3-1.6-2.2c-0.4-0.8-0.6-1.8-0.6-2.8V7.1c0-0.5,0.2-0.9,0.6-1.3
		C97.8,5.5,98.3,5.4,98.8,5.4z"/>
</g>
</svg>
